<svg width="20" height="19" viewBox="0 0 20 19" fill="none" xmlns="http://www.w3.org/2000/svg">
<path d="M2 14.3333V9C2 4.58172 5.58172 1 10 1C14.4183 1 18 4.58172 18 9V14.3333" stroke="#CFCBD2" stroke-width="2" stroke-linecap="round" stroke-linejoin="round"/>
<path d="M17 11.7778H18C18 11.2255 17.5523 10.7778 17 10.7778V11.7778ZM3 11.7778V10.7778C2.44772 10.7778 2 11.2255 2 11.7778H3ZM15.5556 12.5556C15.5556 12.6783 15.4561 12.7778 15.3333 12.7778V10.7778C14.3515 10.7778 13.5556 11.5738 13.5556 12.5556H15.5556ZM15.5556 15.2223V12.5556H13.5556V15.2223H15.5556ZM15.3333 15.0001C15.4561 15.0001 15.5556 15.0995 15.5556 15.2223H13.5556C13.5556 16.2041 14.3515 17.0001 15.3333 17.0001V15.0001ZM16.2222 15.0001H15.3333V17.0001H16.2222V15.0001ZM16 15.2223C16 15.0995 16.0995 15.0001 16.2222 15.0001V17.0001C17.2041 17.0001 18 16.2041 18 15.2223H16ZM16 11.7778V15.2223H18V11.7778H16ZM15.3333 12.7778H17V10.7778H15.3333V12.7778ZM15.3333 8.77783C13.2469 8.77783 11.5556 10.4692 11.5556 12.5556H13.5556C13.5556 11.5738 14.3515 10.7778 15.3333 10.7778V8.77783ZM18 8.77783H15.3333V10.7778H18V8.77783ZM20 10.7778C20 9.67326 19.1046 8.77783 18 8.77783V10.7778H20ZM20 15.2223V10.7778H18V15.2223H20ZM16.2222 19.0001C18.3086 19.0001 20 17.3087 20 15.2223H18C18 16.2041 17.2041 17.0001 16.2222 17.0001V19.0001ZM15.3333 19.0001H16.2222V17.0001H15.3333V19.0001ZM11.5556 15.2223C11.5556 17.3087 13.2469 19.0001 15.3333 19.0001V17.0001C14.3515 17.0001 13.5556 16.2041 13.5556 15.2223H11.5556ZM11.5556 12.5556V15.2223H13.5556V12.5556H11.5556ZM2 8.77783C0.89543 8.77783 0 9.67326 0 10.7778H2V8.77783ZM4.66667 8.77783H2V10.7778H4.66667V8.77783ZM8.44444 12.5556C8.44444 10.4692 6.75308 8.77783 4.66667 8.77783V10.7778C5.64851 10.7778 6.44444 11.5738 6.44444 12.5556H8.44444ZM8.44444 15.2223V12.5556H6.44444V15.2223H8.44444ZM4.66667 19.0001C6.75308 19.0001 8.44444 17.3087 8.44444 15.2223H6.44444C6.44444 16.2041 5.64851 17.0001 4.66667 17.0001V19.0001ZM3.77778 19.0001H4.66667V17.0001H3.77778V19.0001ZM0 15.2223C0 17.3087 1.69137 19.0001 3.77778 19.0001V17.0001C2.79594 17.0001 2 16.2041 2 15.2223H0ZM0 10.7778V15.2223H2V10.7778H0ZM4 15.2223V11.7778H2V15.2223H4ZM3.77778 15.0001C3.90051 15.0001 4 15.0995 4 15.2223H2C2 16.2041 2.79594 17.0001 3.77778 17.0001V15.0001ZM4.66667 15.0001H3.77778V17.0001H4.66667V15.0001ZM4.44444 15.2223C4.44444 15.0995 4.54394 15.0001 4.66667 15.0001V17.0001C5.64851 17.0001 6.44444 16.2041 6.44444 15.2223H4.44444ZM4.44444 12.5556V15.2223H6.44444V12.5556H4.44444ZM4.66667 12.7778C4.54394 12.7778 4.44444 12.6783 4.44444 12.5556H6.44444C6.44444 11.5738 5.64851 10.7778 4.66667 10.7778V12.7778ZM3 12.7778H4.66667V10.7778H3V12.7778Z" fill="#CFCBD2"/>
</svg>
